{"title":"Cymbeline.2014.1080p.BluRay.REMUX.AVC.DTS-HD.MA.5.1-RARBG","uid":11897178,"size":16978493788,"categoryP":"video","categoryS":"hd___movies","magnet":"?xt=urn:btih:a17c0a2e2708982dbe9497e5408d1312dd0e4713&amp;dn=Cymbeline.2014.1080p.BluRay.REMUX.AVC.DTS-HD.MA.5.1-RARBG&amp;tr=udp%3A%2F%2Ftracker.openbittorrent.com%3A80&amp;tr=udp%3A%2F%2Fopen.demonii.com%3A1337&amp;tr=udp%3A%2F%2Ftracker.coppersurfer.tk%3A6969&amp;tr=udp%3A%2F%2Fexodus.desync.com%3A6969","seeders":4,"leechers":4,"uploader":"vickey1992","files":4,"time":1431197701,"description":"Video\nID                                       : 1\nFormat                                   : AVC\nFormat/Info                              : Advanced Video Codec\nFormat profile                           : &lt;a class=&quot;__cf_email__&quot; href=&quot;/cdn-cgi/l/email-protection&quot; data-cfemail=&quot;2961404e4169651d0718&quot;&gt;[email&amp;#160;protected]&lt;/a&gt;&lt;script cf-hash='f9e31' type=&quot;text/javascript&quot;&gt;\n/* &lt;![CDATA[ */!function(){try{var t=&quot;currentScript&quot;in document?document.currentScript:function(){for(var t=document.getElementsByTagName(&quot;script&quot;),e=t.length;e--;)if(t[e].getAttribute(&quot;cf-hash&quot;))return t[e]}();if(t&amp;&amp;t.previousSibling){var e,r,n,i,c=t.previousSibling,a=c.getAttribute(&quot;data-cfemail&quot;);if(a){for(e=&quot;&quot;,r=parseInt(a.substr(0,2),16),n=2;a.length-n;n+=2)i=parseInt(a.substr(n,2),16)^r,e+=String.fromCharCode(i);e=document.createTextNode(e),c.parentNode.replaceChild(e,c)}}}catch(u){}}();/* ]]&gt; */&lt;/script&gt;\nFormat settings, CABAC                   : Yes\nFormat settings, ReFrames                : 4 frames\nCodec ID                                 : V_MPEG4/ISO/AVC\nDuration                                 : 1h 38mn\nBit rate mode                            : Variable\nMaximum bit rate                         : 37.0 Mbps\nWidth                                    : 1 920 pixels\nHeight                                   : 1 080 pixels\nDisplay aspect ratio                     : 16:9\nFrame rate mode                          : Constant\nFrame rate                               : 23.976 fps\nColor space                              : YUV\nChroma subsampling                       : 4:2:0\nBit depth                                : 8 bits\nScan type                                : Progressive\nTitle                                    : Cymbeline.2014.1080p.BluRay.REMUX.AVC.DTS-HD.MA.5.1-RARBG\nLanguage                                 : English\nDefault                                  : No\nForced                                   : No\n\nAudio #1\nID                                       : 2\nFormat                                   : DTS\nFormat/Info                              : Digital Theater Systems\nFormat profile                           : MA / Core\nMode                                     : 16\nFormat settings, Endianness              : Big\nCodec ID                                 : A_DTS\nDuration                                 : 1h 38mn\nBit rate mode                            : Variable\nBit rate                                 : Unknown / 1 509 Kbps\nChannel(s)                               : 6 channels\nChannel positions                        : Front: L C R, Side: L R, LFE\nSampling rate                            : 48.0 KHz\nBit depth                                : 24 bits\nCompression mode                         : Lossless / Lossy\nTitle                                    : Cymbeline.2014.1080p.BluRay.REMUX.AVC.DTS-HD.MA.5.1-RARBG\nLanguage                                 : English\nDefault                                  : Yes\nForced                                   : No\n\nAudio #2\nID                                       : 3\nFormat                                   : DTS\nFormat/Info                              : Digital Theater Systems\nMode                                     : 16\nFormat settings, Endianness              : Big\nCodec ID                                 : A_DTS\nDuration                                 : 1h 38mn\nBit rate mode                            : Constant\nBit rate                                 : 1 509 Kbps\nChannel(s)                               : 6 channels\nChannel positions                        : Front: L C R, Side: L R, LFE\nSampling rate                            : 48.0 KHz\nBit depth                                : 24 bits\nCompression mode                         : Lossy\nStream size                              : 1.04 GiB (7%)\nTitle                                    : Cymbeline.2014.1080p.BluRay.REMUX.AVC.DTS-HD.MA.5.1-RARBG\nLanguage                                 : English\nDefault                                  : No\nForced                                   : No\n\nAudio #3\nID                                       : 4\nFormat                                   : AC-3\nFormat/Info                              : Audio Coding 3\nMode extension                           : CM (complete main)\nFormat settings, Endianness              : Big\nCodec ID                                 : A_AC3\nDuration                                 : 1h 38mn\nBit rate mode                            : Constant\nBit rate                                 : 192 Kbps\nChannel(s)                               : 2 channels\nChannel positions                        : Front: L R\nSampling rate                            : 48.0 KHz\nBit depth                                : 16 bits\nCompression mode                         : Lossy\nStream size                              : 135 MiB (1%)\nTitle                                    : Cymbeline.2014.1080p.BluRay.REMUX.AVC.DTS-HD.MA.5.1-RARBG\nLanguage                                 : English\nDefault                                  : No\nForced                                   : No\n\nText #1\nID                                       : 5\nFormat                                   : PGS\nMuxing mode                              : zlib\nCodec ID                                 : S_HDMV/PGS\nCodec ID/Info                            : The same subtitle format used on BDs/HD-DVDs\nLanguage                                 : English\nDefault                                  : No\nForced                                   : No\n\nText #2\nID                                       : 6\nFormat                                   : PGS\nMuxing mode                              : zlib\nCodec ID                                 : S_HDMV/PGS\nCodec ID/Info                            : The same subtitle format used on BDs/HD-DVDs\nLanguage                                 : English\nDefault                                  : No\nForced                                   : No\n\nText #3\nID                                       : 7\nFormat                                   : PGS\nMuxing mode                              : zlib\nCodec ID                                 : S_HDMV/PGS\nCodec ID/Info                            : The same subtitle format used on BDs/HD-DVDs\nLanguage                                 : Spanish\nDefault                                  : No\nForced                                   : No\n\nMenu\n00:00:00.000                             : en:Chapter 01\n00:06:57.792                             : en:Chapter 02\n00:10:59.450                             : en:Chapter 03\n00:17:17.828                             : en:Chapter 04\n00:27:57.384                             : en:Chapter 05\n00:30:47.971                             : en:Chapter 06\n00:35:09.649                             : en:Chapter 07\n00:41:30.654                             : en:Chapter 08\n00:49:24.086                             : en:Chapter 09\n00:54:31.142                             : en:Chapter 10\n01:02:51.434                             : en:Chapter 11\n01:07:28.002                             : en:Chapter 12\n01:14:28.797                             : en:Chapter 13\n01:21:20.000                             : en:Chapter 14\n01:25:39.008                             : en:Chapter 15\n01:32:20.785                             : en:Chapter 16\nNotes:\nGreetz to all!","torrent":{"xt":"urn:btih:a17c0a2e2708982dbe9497e5408d1312dd0e4713","amp;dn":"Cymbeline.2014.1080p.BluRay.REMUX.AVC.DTS-HD.MA.5.1-RARBG","amp;tr":["udp%3A%2F%2Ftracker.openbittorrent.com%3A80","udp%3A%2F%2Fopen.demonii.com%3A1337","udp%3A%2F%2Ftracker.coppersurfer.tk%3A6969","udp%3A%2F%2Fexodus.desync.com%3A6969"],"infoHash":"a17c0a2e2708982dbe9497e5408d1312dd0e4713","infoHashBuffer":{"type":"Buffer","data":[161,124,10,46,39,8,152,45,190,148,151,229,64,141,19,18,221,14,71,19]},"announce":[],"urlList":[]}}